<svg xmlns="http://www.w3.org/2000/svg" viewBox="0 0 40.53 40.53"><defs><style>.cls-1{fill:#67707c;}</style></defs><g id="invoices"><path class="cls-1" d="M15.71,10.34a1.25,1.25,0,0,0-1.21,1.21h2.32A1.09,1.09,0,0,0,15.71,10.34Zm0,0a1.25,1.25,0,0,0-1.21,1.21h2.32A1.09,1.09,0,0,0,15.71,10.34Zm0,0a1.25,1.25,0,0,0-1.21,1.21h2.32A1.09,1.09,0,0,0,15.71,10.34Z"/><polyline class="cls-1" points="30.77 14.62 22.82 14.62 22.82 6.66"/><path class="cls-1" d="M21.52,15.87V6.67H9.76v27.2h21v-18ZM15.83,9.09a2.72,2.72,0,0,1,2.81,3,4.86,4.86,0,0,1-.06.73H14.51c.07.78.87,1.15,1.78,1.15A5.75,5.75,0,0,0,18,13.73L18.29,15a6.38,6.38,0,0,1-2.28.37c-2.14,0-3.37-1.18-3.37-3.07A3.08,3.08,0,0,1,15.83,9.09ZM28.89,31.35H11.64V29.69H28.89Zm0-3.83H11.64V25.87H28.89Zm0-3.83H11.64V22H28.89Z"/></g></svg>