<svg xmlns="http://www.w3.org/2000/svg" viewBox="0 0 40.53 40.53"><defs><style>.cls-1{fill:none;stroke:#67707c;stroke-miterlimit:10;stroke-width:0.25px;}.cls-2{fill:#67707c;}</style></defs><g id="invoices"><line class="cls-1" x1="34.96" y1="37.41" x2="34.96" y2="37.41"/><rect class="cls-2" x="9.83" y="31.84" width="20.57" height="1.79"/><path class="cls-2" d="M6.22,24a1,1,0,0,1-.92-.84,9.45,9.45,0,0,1,.79-6.28,7.26,7.26,0,0,1,4.35-3.79,1,1,0,0,1,1.15.81,1.14,1.14,0,0,1-.69,1.35,5.31,5.31,0,0,0-3.19,2.77,6.92,6.92,0,0,0-.58,4.59A1.14,1.14,0,0,1,6.45,24,.83.83,0,0,1,6.22,24Z"/><path class="cls-2" d="M34.31,24a1,1,0,0,0,.92-.84,9.45,9.45,0,0,0-.79-6.28,7.26,7.26,0,0,0-4.35-3.79,1,1,0,0,0-1.15.81,1.14,1.14,0,0,0,.69,1.35,5.31,5.31,0,0,1,3.19,2.77,6.92,6.92,0,0,1,.58,4.59A1.14,1.14,0,0,0,34.08,24,.83.83,0,0,0,34.31,24Z"/><path class="cls-2" d="M10,30.4c0-7,4.61-12.7,10.29-12.7s10.29,5.69,10.29,12.7m-15.7-1.1A9.56,9.56,0,0,1,20.26,19c-4.33,0-7.83,4.59-7.83,10.25h0l2.41,0"/><path class="cls-2" d="M17.92,16.39c0-1.64,1-3,2.34-3s2.34,1.33,2.34,3"/></g></svg>