<svg xmlns="http://www.w3.org/2000/svg" viewBox="0 0 40.53 40.53"><defs><style>.cls-1{fill:#67707c;}</style></defs><title>CatalogPortal</title><g id="tools"><path class="cls-1" d="M33.43,27.66l-.14,0a11.21,11.21,0,0,0-3.86-.78,6.65,6.65,0,0,0-3,.57,6.29,6.29,0,0,0-3.07-.57,11.21,11.21,0,0,0-3.86.78l-.14,0-1.13,9h.28a5.6,5.6,0,0,0,2.05-.47l.4-.12a9,9,0,0,1,2.58-.48,3.63,3.63,0,0,1,2.7,1l.18.19.18-.19a3.63,3.63,0,0,1,2.7-1,11.78,11.78,0,0,1,3.11.58,5.85,5.85,0,0,0,2.1.49h.29Zm-12,6.81-.55.13a8,8,0,0,0-.87.29l.82-6.25a8.39,8.39,0,0,1,2.64-.4,4.48,4.48,0,0,1,2.38.62v5.82a5.94,5.94,0,0,0-2.38-.51,5.48,5.48,0,0,0-.76,0c-.24,0-.42.05-.67.11m10.48.51a8,8,0,0,0-1.29-.39,8.48,8.48,0,0,0-2-.27,6.54,6.54,0,0,0-2.38.51V28.89a4.47,4.47,0,0,1,2.38-.65,8.45,8.45,0,0,1,2.65.4l1,6.32Z"/><path class="cls-1" d="M19.73,16.47l-.14,0a11.21,11.21,0,0,0-3.86-.78,6.65,6.65,0,0,0-3,.57,6.29,6.29,0,0,0-3.07-.57,11.21,11.21,0,0,0-3.86.78l-.14,0-1.13,9h.28A5.6,5.6,0,0,0,6.81,25l.4-.12a9,9,0,0,1,2.58-.48,3.63,3.63,0,0,1,2.7,1l.18.19.18-.19a3.63,3.63,0,0,1,2.7-1,11.78,11.78,0,0,1,3.11.58,5.85,5.85,0,0,0,2.1.49h.29Zm-12,6.81-.55.13a8,8,0,0,0-.87.29l.82-6.25a8.39,8.39,0,0,1,2.64-.4,4.48,4.48,0,0,1,2.38.62v5.82A5.94,5.94,0,0,0,9.79,23,5.48,5.48,0,0,0,9,23c-.24,0-.42.05-.67.11m10.48.51a8,8,0,0,0-1.29-.39,8.48,8.48,0,0,0-2-.27,6.54,6.54,0,0,0-2.38.51V17.7a4.47,4.47,0,0,1,2.38-.65,8.45,8.45,0,0,1,2.65.4l1,6.32Z"/><path class="cls-1" d="M32.87,4.88l-.14,0a11.21,11.21,0,0,0-3.86-.78,6.65,6.65,0,0,0-3,.57,6.29,6.29,0,0,0-3.07-.57,11.21,11.21,0,0,0-3.86.78l-.14,0-1.13,9h.28a5.6,5.6,0,0,0,2.05-.47l.4-.12a9,9,0,0,1,2.58-.48,3.63,3.63,0,0,1,2.7,1l.18.19L26,13.8a3.63,3.63,0,0,1,2.7-1,11.78,11.78,0,0,1,3.11.58,5.85,5.85,0,0,0,2.1.49h.29Zm-12,6.81-.55.13a8,8,0,0,0-.87.29l.82-6.25a8.39,8.39,0,0,1,2.64-.4,4.48,4.48,0,0,1,2.38.62V11.9a5.94,5.94,0,0,0-2.38-.51,5.48,5.48,0,0,0-.76,0c-.24,0-.42.05-.67.11M32,12.05a8,8,0,0,0-1.29-.39,8.48,8.48,0,0,0-2-.27,6.54,6.54,0,0,0-2.38.51V6.11a4.47,4.47,0,0,1,2.38-.65,8.45,8.45,0,0,1,2.65.4l1,6.32Z"/></g></svg>