<svg xmlns="http://www.w3.org/2000/svg" viewBox="0 0 40.53 40.53"><defs><style>.cls-1{fill:#67707c;}</style></defs><g id="invoices"><path class="cls-1" d="M35.43,7.83l-.06-.06a1.86,1.86,0,0,1,.11,2.77l-6.14,6.14-2.8-2.8,6.14-6.14A1.85,1.85,0,0,1,35.43,7.83Z"/><polygon class="cls-1" points="23.94 19.16 28.45 17.66 25.45 14.65 23.94 19.16"/><path class="cls-1" d="M16.87,20.68l0-.9a.5.5,0,0,0-.93-.25c-.79,1.24-2.33,1.71-3.18,2.93-.37.53.22,1,.86.5h0"/><path class="cls-1" d="M15.89,21.32c0,.35.09.7.64.53a3.44,3.44,0,0,0,.48-.16,3.84,3.84,0,0,1,.36-.21c.07,0,0,.24.2.39a1.33,1.33,0,0,0,.5.43A7.88,7.88,0,0,0,22.13,22c.61-.19.35-1.15-.27-1-.83.25-3.36,1-3.59-.15a.5.5,0,0,0-.35-.35,1.09,1.09,0,0,0-1.05.17"/><polygon class="cls-1" points="23.84 20.31 23.84 25.32 11.59 25.32 11.59 8.78 23.84 8.78 23.84 13.56 25.84 13.56 25.84 6.78 9.59 6.78 9.59 27.32 25.84 27.32 25.84 20.31 23.84 20.31"/><path class="cls-1" d="M17.76,28.75v2.67H5.5V14.89H8.12v-2H3.5V33.42H19.76V28.75Z"/></g></svg>