<svg xmlns="http://www.w3.org/2000/svg" viewBox="0 0 40.53 40.53"><defs><style>.cls-1{fill:#67707c;}</style></defs><g id="tools"><rect class="cls-1" x="23.06" y="18.5" width="8.57" height="2"/><rect class="cls-1" x="23.06" y="22.34" width="8.57" height="2"/><rect class="cls-1" x="23.06" y="26.17" width="8.57" height="2"/><path class="cls-1" d="M15.44,17.8a3,3,0,0,1,3.22,3.31c0,2.2-1.82,4.66-3.22,4.66s-3.22-2.46-3.22-4.66A3,3,0,0,1,15.44,17.8Z"/><path class="cls-1" d="M10.58,28.19c0-1.85,1.21-2.22,2.94-2.59a3,3,0,0,0,1.92,1.13,3.09,3.09,0,0,0,1.92-1.19c1.73.37,2.94.8,2.94,2.65S10.58,30,10.58,28.19Z"/><path class="cls-1" d="M33.62,12.75H8.41a2,2,0,0,0-2,2V31.93a2,2,0,0,0,2,2H33.62a2,2,0,0,0,2-2V14.75A2,2,0,0,0,33.62,12.75Zm0,17.29a2,2,0,0,1-2,2H27.22v-.22a.91.91,0,0,0-1.81,0V32h-8.5v-.22a.91.91,0,0,0-1.81,0V32H10.41a2,2,0,0,1-2-2V16.84a2,2,0,0,1,2-2H31.58a2,2,0,0,1,2,2Z"/></g></svg>