<svg xmlns="http://www.w3.org/2000/svg" viewBox="0 0 40.53 40.53"><defs><style>.cls-1{fill:#67707c;}</style></defs><g id="invoices"><polyline class="cls-1" points="16.56 13.3 13.15 13.3 13.15 9.99"/><path class="cls-1" d="M16.47,24.08H5.14V9.82h7v4.34h4.36ZM6.55,22.66h8.5V15.58H10.69V11.24H6.55Z"/><polyline class="cls-1" points="32.74 8 29.33 8 29.33 4.69"/><path class="cls-1" d="M32.65,18.78H21.32V4.52h7V8.86h4.36Zm-9.91-1.42h8.5V10.28H26.87V5.94H22.73Z"/><polyline class="cls-1" points="30.68 24.66 27.27 24.66 27.27 21.35"/><path class="cls-1" d="M30.58,35.44H19.25V21.18h7v4.34h4.36ZM20.67,34h8.5V26.94H24.81V22.6H20.67Z"/></g></svg>