<svg xmlns="http://www.w3.org/2000/svg" viewBox="0 0 40.53 40.53"><defs><style>.cls-1{fill:#67707c;}</style></defs><title>Payments</title><g id="tools"><path class="cls-1" d="M21,6.86A12.75,12.75,0,0,0,8.36,21.72c2.86,0,5.08,1.53,5.08,3.44v.94a1.7,1.7,0,0,1,.4.26.91.91,0,0,1,.14.17,6.45,6.45,0,0,1,4-1.24,6.22,6.22,0,0,1,4.31,1.49h0c0-.31.26-.57.3-.87a3.78,3.78,0,0,0-.22-1.36c-.08-.17-.25-.23-.35-.37a1.24,1.24,0,0,1-.24-.76c-.09-.66.09-.86-.55-.77-.18,0-.31.14-.49,0s0-.34-.31-.43-1.21.53-1.61.56-.55-.16-.88-.41a3.07,3.07,0,0,1-1.45-2.62A2.18,2.18,0,0,1,17,18.23c.31-.32.75-.44,1-.82s.29-.82.68-1,.83-.09,1.22-.23A2.22,2.22,0,0,1,21,16c.36,0,.72-.07.9.16s0,.73.55,1A1.88,1.88,0,0,0,24.09,17s0,0,0,0a6.32,6.32,0,0,1,1.51.39A2.32,2.32,0,0,1,27,18.92a8.27,8.27,0,0,0,1,2c.12.17.45.81.64.89a2.56,2.56,0,0,0,.77-.13c-.25,1.2-1.69,1.81-1.91,3-.08.39.18.83.1,1.22s-.45.65-.7.93a2,2,0,0,0-.51.79c0,.15.1.4,0,.55s-.48.34-.62.48a3,3,0,0,1-1.29,1,7.28,7.28,0,0,1-1.25.21c0-.18,0,1.2,0,1.2a2.53,2.53,0,0,1-.44,1.4A12.83,12.83,0,0,0,21,6.86Zm-9.26,8.22c-.16.23-1.31.66-1.19,1.05,0,0,.42-.25.41-.11,0,.34-.49.81-.66,1.09a9.79,9.79,0,0,0-.53.9c-.3.67-.11,1.46-.39,2.13a11.57,11.57,0,0,1,.69-3.66c.28-.76.9-2.59,1.65-2.92,0,.11-.09.18-.1.29s.17.41.21.63A.68.68,0,0,1,11.76,15.09Zm3.92-4.53c-.28.28-.49.58-.75.87s-.68.82-1.09.83c-.25,0-.79-.12-.7-.35.78-.72.42-.37.17-.14a11.68,11.68,0,0,1,3.55-2.17C16.52,10,16.06,10.17,15.67,10.56Zm12.91,16.9c-.44.54-.92.6-.69-.2a2.33,2.33,0,0,1,.57-1.13,2.45,2.45,0,0,0,.62-.79,1.79,1.79,0,0,1,0,.31A3.15,3.15,0,0,1,28.59,27.46ZM18.33,12.4c.15-.18.23-.06.48,0,0-.26-.12-1.13.42-1,.16,0,.71.89.83,1a2.57,2.57,0,0,1-1.26.44v-.46l-.42.46A.35.35,0,0,1,18.33,12.4Zm13.23,6.84a3.64,3.64,0,0,0-1.25-.7c-.39-.15-.77-.64-1.18-.61a4.86,4.86,0,0,0,.42.77c.24.22.51,0,.72.15s.13.26.2.34c.38.49,0,.59-.37.89a5,5,0,0,1-.85.56c-1,.44-1-.49-1.45-1.16-.1-.15-1.39-2.11-1.44-2.09.28-.16.21.09.31-.23s-.07-.58,0-.86c-.62.37-.75.45-1.18-.27-.3-.51-.17-.82.39-1s1.09.2,1.46,0c.72-.32-.72-.78-.73-.75s.29-.32.36-.38a1.49,1.49,0,0,0-1.65.79c-.17.3.15.21-.27.45-.21.12-.4,0-.6.08-.36.12-.53.13-.19.55-.26-.32-.36-.72-.6-1A4.51,4.51,0,0,0,22.39,14c0,.57.54.85.85,1.27l-.58,0c.09-.31-.69-.91-1-.94-.88-.1-1.33.84-1.86,1.3-.36.31-1.31.41-1.51-.06a1.84,1.84,0,0,1,0-.66c0-.51,0-.41.41-.55s.93-.12,1.05-.65c0-.14-.17-.27,0-.49s.49-.23.66-.31a3.33,3.33,0,0,0,.83-.57c.38-.32.5-.46.91-.27.23.11.41.47.68.49.93.06.66-1,.44-1.4-.15.24-.35.71-.58.78-.59.17-.49-.47-.77-.68s-.82.3-.64-.33c.09-.32.41-.4.67-.51A5.4,5.4,0,0,1,23.23,10a12.25,12.25,0,0,1,1.24.07c.48,0,1.06-.22,1.47.09s.13.33.48.52.23,0,.5,0l.25-.14.43.28a11.78,11.78,0,0,1,2.61,2.46,11.63,11.63,0,0,1,2.44,7.1q0,.33,0,.66A4,4,0,0,0,31.57,19.24Z"/><path class="cls-1" d="M17.56,27.13c2,0,3.69.62,3.69,1.38s-1.66,1.38-3.69,1.38-3.69-.62-3.69-1.38S15.52,27.13,17.56,27.13Z"/><path class="cls-1" d="M7.7,23.3c2,0,3.69.62,3.69,1.38S9.74,26.07,7.7,26.07,4,25.45,4,24.69,5.66,23.3,7.7,23.3Z"/><path class="cls-1" d="M11.35,27.39S10.73,28.6,7.7,28.6,4,27.39,4,27.39V26.07A5,5,0,0,0,7.7,27.27c2.63,0,3.65-1.21,3.65-1.21Z"/><path class="cls-1" d="M11.35,29.93s-.62,1.21-3.65,1.21S4,29.93,4,29.93V28.6A5,5,0,0,0,7.7,29.81c2.63,0,3.65-1.21,3.65-1.21Z"/><path class="cls-1" d="M11.35,32.46s-.62,1.21-3.65,1.21S4,32.46,4,32.46V31.13A5,5,0,0,0,7.7,32.34c2.63,0,3.65-1.21,3.65-1.21Z"/><path class="cls-1" d="M21.23,31.42s-.62,1.21-3.65,1.21-3.69-1.21-3.69-1.21V30.09a5,5,0,0,0,3.69,1.21c2.63,0,3.65-1.21,3.65-1.21Z"/></g></svg>