<svg xmlns="http://www.w3.org/2000/svg" viewBox="0 0 40.53 40.53"><defs><style>.cls-1{fill:#67707c;}</style></defs><title>BusinessNetworkPortal</title><g id="tools"><path class="cls-1" d="M8.4,7.91A1.64,1.64,0,0,1,10.13,9.7c0,1.19-1,2.51-1.73,2.51S6.66,10.88,6.66,9.7A1.64,1.64,0,0,1,8.4,7.91Z"/><path class="cls-1" d="M5.78,13.52c0-1,.65-1.2,1.59-1.4a1.61,1.61,0,0,0,1,.61,1.67,1.67,0,0,0,1-.64c.93.2,1.59.43,1.59,1.43S5.78,14.52,5.78,13.52Z"/><g id="globe-2"><path class="cls-1" d="M19.1,12.62Z"/><path class="cls-1" d="M20.64,9.3a8.93,8.93,0,1,0,8.77,7.24A9,9,0,0,0,20.64,9.3Zm8.16,8.93q0,.23,0,.46a3,3,0,0,0-.69-1.28,3.4,3.4,0,0,0-.92-.52c-.25-.11-.56-.45-.83-.43.1.15.17.43.29.54s.38,0,.51.11.1.18.14.24c.24.32.11.36-.2.58a4.09,4.09,0,0,1-.66.43c-.67.31-.67-.29-1-.73-.08-.12-1-1.56-1.06-1.54.21-.11.13.05.22-.16s0-.42,0-.6c-.43.26-.54.29-.83-.19s-.14-.56.25-.69.94.14,1.1,0c.36-.27-.54-.59-.56-.55a1.25,1.25,0,0,1,.25-.25.79.79,0,0,0-.57.05c-.41.13-.42.26-.58.57s-.24.24-.56.31-.46,0-.19.38c-.18-.22-.25-.49-.41-.7a3.15,3.15,0,0,0-.9-.55c-.06.4.42.59.6.89l-.41,0c.07-.24-.49-.64-.72-.66-.6-.05-.92.55-1.28.88s-.94.31-1.08-.05a1.23,1.23,0,0,1,0-.54c.09-.28,0-.22.35-.29a1.14,1.14,0,0,0,.47-.15.49.49,0,0,0,.16-.19c0-.11,0-.11,0-.18.1-.34.13-.32.49-.48a2.42,2.42,0,0,0,.58-.4c.2-.17.33-.32.58-.24s.32.37.53.39c.63,0,.46-.67.31-1-.17.28-.29.71-.68.5-.18-.1-.11-.28-.24-.4s-.49,0-.53,0c-.21-.36.65-.64.81-.7A3.38,3.38,0,0,1,22.94,11a5.59,5.59,0,0,1,.9-.05c.38.08.39.57.76.58.11,0,.2-.14.3-.14a.68.68,0,0,1,.39.19A8.24,8.24,0,0,1,27.59,14,8.14,8.14,0,0,1,28.79,18.23ZM14.13,13.42c0,.1-.07.16-.07.28s.14.27.16.4a.41.41,0,0,1-.11.41c-.11.13-.87.46-.8.71,0,0,.3-.17.29-.07,0,.45-.66,1-.84,1.4s-.08,1-.27,1.49A8.11,8.11,0,0,1,13,15.45C13.15,15,13.63,13.56,14.13,13.42Zm1-1.18a8.19,8.19,0,0,1,2.6-1.62c-.23.29-.56.41-.83.68s-.34.42-.53.62-.49.57-.77.57-.54-.09-.48-.25C15.87,11.55,15.1,12.28,15.12,12.24ZM18.8,13a.25.25,0,0,1,0-.37c.1-.11.17-.06.34,0,0-.17-.09-.78.28-.7a5.71,5.71,0,0,1,.6.74,1.64,1.64,0,0,1-.88.31c0-.11,0-.22,0-.33Zm4,2.89a4.18,4.18,0,0,1,1.09.29,1.67,1.67,0,0,1,1,1.09,5,5,0,0,0,.66,1.32c.11.15.31.57.46.62s.39-.06.52-.09c-.17.84-1.13,1.26-1.33,2.08-.07.27.11.56.07.83s-.29.46-.47.68a1.73,1.73,0,0,0-.38.54c0,.12.07.28,0,.39s-.26.21-.37.32a2.32,2.32,0,0,1-1,.73,5.12,5.12,0,0,1-.89.15,2.55,2.55,0,0,0-.23-1.15c-.12-.28-.4-.56-.43-.86s.19-.48.23-.73a2.36,2.36,0,0,0-.15-.9c-.14-.34-.35-.38-.41-.79s.05-.61-.26-.65c-.13,0-.27.16-.41.09s-.08-.28-.28-.33-.74.29-.94.33a.6.6,0,0,1-.68-.14A2.37,2.37,0,0,1,17.47,18a2.13,2.13,0,0,1,.17-1.09c.17-.31.45-.4.7-.63s.28-.54.5-.75.54-.15.86-.25a2.26,2.26,0,0,1,.89-.23,2.07,2.07,0,0,1,.68.09c.25.25,0,.55.43.73a1.27,1.27,0,0,0,1.1-.05Zm3.54,6A2.28,2.28,0,0,1,26,23.09c-.28.39-.7.55-.53-.08a2,2,0,0,1,.35-.76c.07-.08.2-.09.26-.16a2.19,2.19,0,0,0,.23-.43A1.25,1.25,0,0,1,26.33,21.87ZM12.69,20a4.21,4.21,0,0,1,1.05.64c.37.28.41.64.67,1s.79.4,1.15.69.24.39.12.78a3.26,3.26,0,0,0-.07.68c0,.24.14.17-.18.32s-.45,0-.65-.25A8.18,8.18,0,0,1,12.69,20S13.06,21.66,12.69,20Z"/></g><path class="cls-1" d="M20.64,28.74a1.64,1.64,0,0,1,1.73,1.78c0,1.19-1,2.51-1.73,2.51s-1.73-1.33-1.73-2.51A1.64,1.64,0,0,1,20.64,28.74Z"/><path class="cls-1" d="M18,34.35c0-1,.65-1.2,1.59-1.4a1.61,1.61,0,0,0,1,.61,1.67,1.67,0,0,0,1-.64c.93.2,1.59.43,1.59,1.43S18,35.35,18,34.35Z"/><path class="cls-1" d="M32.13,8.91a1.64,1.64,0,0,1,1.73,1.78c0,1.19-1,2.51-1.73,2.51S30.4,11.89,30.4,10.7A1.64,1.64,0,0,1,32.13,8.91Z"/><path class="cls-1" d="M29.51,14.52c0-1,.65-1.2,1.59-1.4a1.61,1.61,0,0,0,1,.61,1.67,1.67,0,0,0,1-.64c.93.2,1.59.43,1.59,1.43S29.51,15.52,29.51,14.52Z"/></g></svg>