<svg xmlns="http://www.w3.org/2000/svg" viewBox="0 0 40.53 40.53"><defs><style>.cls-1{fill:#67707c;}</style></defs><g id="tools"><line class="cls-1" x1="10.48" y1="10.66" x2="10.44" y2="10.72"/><line class="cls-1" x1="29.47" y1="10.72" x2="29.43" y2="10.66"/><path class="cls-1" d="M9.81,23.47V33.69H22.59v-8.1H27.9v8.1h2.81V23.47Zm10,8H12.63V25.59h7.14Z"/><path class="cls-1" d="M30.71,14.8H9.86L6.68,20.14a2.87,2.87,0,0,0,3.08,2.59A3.39,3.39,0,0,0,11.88,22a3.54,3.54,0,0,0,4.2,0,3.54,3.54,0,0,0,4.17,0,3.54,3.54,0,0,0,4.13,0,3.39,3.39,0,0,0,2,.66A3.33,3.33,0,0,0,28.6,22a3.37,3.37,0,0,0,2.15.74,2.85,2.85,0,0,0,3.09-2.59Zm0,5.93c-.65,0-1.08-.36-1.08-.59H27.52c0,.23-.44.59-1.09.59a1.18,1.18,0,0,1-1-.48.26.26,0,0,1,0-.11h-2a.26.26,0,0,1,0,.11,1.18,1.18,0,0,1-1,.48,1.21,1.21,0,0,1-1.06-.48.26.26,0,0,1,0-.11h-2a.26.26,0,0,1,0,.11,1.18,1.18,0,0,1-1.06.48c-.65,0-1.08-.36-1.08-.59h-2c0,.23-.44.59-1.09.59s-1.08-.36-1.08-.59h-2c0,.23-.43.59-1.09.59s-1.08-.36-1.08-.59L10.44,17H30l1.84,3.16C31.84,20.37,31.41,20.73,30.75,20.73Z"/><path class="cls-1" d="M21.26,20.14a.41.41,0,0,1,0,.11.26.26,0,0,1,0-.11Z"/><path class="cls-1" d="M19.26,20.14a.26.26,0,0,1,0,.11.41.41,0,0,1,0-.11Z"/><path class="cls-1" d="M25.39,20.14a.41.41,0,0,1,0,.11.26.26,0,0,1,0-.11Z"/><path class="cls-1" d="M23.39,20.14a.26.26,0,0,1,0,.11.41.41,0,0,1,0-.11Z"/><rect class="cls-1" x="9.81" y="12.35" width="20.85" height="1.5"/></g></svg>