<svg xmlns="http://www.w3.org/2000/svg" viewBox="0 0 40.53 40.53"><defs><style>.cls-1{fill:#67707c;}</style></defs><g id="tools"><polygon class="cls-1" points="28.9 29.31 27.3 29.31 27.3 26.99 26.48 26.99 28.12 24.64 29.76 26.99 28.9 26.99 28.9 29.31"/><polygon class="cls-1" points="24.97 29.31 23.37 29.31 23.37 26.99 22.55 26.99 24.19 24.64 25.83 26.99 24.97 26.99 24.97 29.31"/><polygon class="cls-1" points="16.92 20.26 15.33 20.26 15.33 17.97 14.52 17.97 16.14 15.64 17.76 17.97 16.92 17.97 16.92 20.26"/><polygon class="cls-1" points="12.85 20.26 11.27 20.26 11.27 17.97 10.45 17.97 12.08 15.64 13.7 17.97 12.85 17.97 12.85 20.26"/><path class="cls-1" d="M18.75,19.08V33.85H33.52V19.08ZM31.86,32.19H20.41V20.74h4V23h3.26V20.74h4.15Z"/><path class="cls-1" d="M6.33,10V25H17.47V23.35H8V11.66h4.12V14h3.32V11.66h4.23v6.22h1.7V10Z"/></g></svg>