<svg xmlns="http://www.w3.org/2000/svg" viewBox="0 0 40.53 40.53"><defs><style>.cls-1{fill:#67707c;}</style></defs><g id="tools"><path class="cls-1" d="M23.73,25.2h0A1,1,0,0,1,23,24.9l-4.11-4.11-4,4a1,1,0,0,1-1.41-1.41l4.66-4.66a1,1,0,0,1,1.41,0l4.11,4.11,4.35-4.35a1,1,0,0,1,1.41,1.41L24.43,24.9A1,1,0,0,1,23.73,25.2Z"/><circle class="cls-1" cx="28.79" cy="19.14" r="2.03"/><circle class="cls-1" cx="18.94" cy="19.51" r="2.03"/><circle class="cls-1" cx="23.68" cy="24.2" r="2.03" transform="translate(-9.11 32.61) rotate(-60)"/><path class="cls-1" d="M30.49,32.8H10a1.5,1.5,0,0,1-1.5-1.5V9.23a1.5,1.5,0,0,1,3,0V29.8h19a1.5,1.5,0,0,1,0,3Z"/></g></svg>