<svg xmlns="http://www.w3.org/2000/svg" viewBox="0 0 40.53 40.53"><defs><style>.cls-1{fill:#67707c;}</style></defs><g id="tools"><path class="cls-1" d="M14,23.91c2,0,3.69.62,3.69,1.38S16.06,26.67,14,26.67s-3.69-.62-3.69-1.38S12,23.91,14,23.91Z"/><path class="cls-1" d="M17.68,28s-.62,1.21-3.65,1.21S10.33,28,10.33,28V26.67A5,5,0,0,0,14,27.88c2.63,0,3.65-1.21,3.65-1.21Z"/><path class="cls-1" d="M17.68,30.53s-.62,1.21-3.65,1.21-3.69-1.21-3.69-1.21V29.21A5,5,0,0,0,14,30.41c2.63,0,3.65-1.21,3.65-1.21Z"/><path class="cls-1" d="M17.68,33.07s-.62,1.21-3.65,1.21-3.69-1.21-3.69-1.21V31.74A5,5,0,0,0,14,32.95c2.63,0,3.65-1.21,3.65-1.21Z"/><path class="cls-1" d="M32.51,21.41l-6.18,6.42a1.5,1.5,0,0,1-2.12,0L15.09,19.1a1.24,1.24,0,0,1-.18-.22l0,0a1.47,1.47,0,0,1-.45-1.06V11.54a1.5,1.5,0,0,1,1.5-1.5H22.2a1.33,1.33,0,0,1,.65.16.69.69,0,0,1,.19.1,1,1,0,0,1,.3.21l9.13,8.78A1.51,1.51,0,0,1,32.51,21.41ZM19,12.88a1.58,1.58,0,1,0,1.58,1.58A1.58,1.58,0,0,0,19,12.88Z"/></g></svg>